REM DATE 2011
REM DISCID 3F04AD06
REM COMMENT "ExactAudioCopy v1.0b3"
PERFORMER "Stitched Up Heart"
TITLE "Escape The Nightmare"
FILE "01 - These Scars Will Let Me Breathe.wav" WAVE
  TRACK 01 AUDIO
    TITLE "These Scars Will Let Me Breathe"
    PERFORMER "Stitched Up Heart"
    INDEX 01 00:00:00
FILE "02 - Dead Walkin'.wav" WAVE
  TRACK 02 AUDIO
    PERFORMER "Stitched Up Heart"
    INDEX 00 03:46:02
    INDEX 01 00:00:00
FILE "03 - We're Alive.wav" WAVE
  TRACK 03 AUDIO
    TITLE "We're Alive"
    PERFORMER "Stitched Up Heart"
    INDEX 00 02:46:64
    INDEX 01 00:00:00
